<svg width="20" height="20" viewBox="0 0 20 20" fill="none" xmlns="http://www.w3.org/2000/svg">
<path d="M15.5271 13.0598L16.9575 8.76864C18.207 5.01998 18.8318 3.14565 17.8424 2.15626C16.853 1.16687 14.9787 1.79165 11.2301 3.0412L6.93895 4.47157C3.91342 5.48008 2.40066 5.98433 1.97078 6.72379C1.56182 7.42724 1.56182 8.29604 1.97078 8.9995C2.40066 9.73895 3.91342 10.2432 6.93895 11.2517C7.31391 11.3767 7.73574 11.2875 8.01651 11.0093L12.6045 6.46376C12.8627 6.20804 13.2792 6.20998 13.5349 6.46809C13.7907 6.72621 13.7887 7.14276 13.5306 7.39849L9.01666 11.8706C8.70719 12.1772 8.60923 12.6465 8.74699 13.0598C9.75549 16.0853 10.2597 17.598 10.9992 18.0279C11.7027 18.4369 12.5715 18.4369 13.2749 18.0279C14.0144 17.598 14.5186 16.0853 15.5271 13.0598Z" fill="white"/>
</svg>
